<svg xmlns="http://www.w3.org/2000/svg" viewBox="0 0 600 420" fill="none">
  <rect width="600" height="420" fill="#0a0a0f"/>
  <rect width="600" height="40" fill="rgba(255,255,255,0.04)"/>
  <circle cx="20" cy="20" r="5" fill="#FF5F57"/>
  <circle cx="36" cy="20" r="5" fill="#FEBC2E"/>
  <circle cx="52" cy="20" r="5" fill="#28C840"/>
  <rect x="80" y="14" width="440" height="12" rx="6" fill="rgba(255,255,255,0.06)"/>
  
  <!-- Dark restaurant hero -->
  <rect x="0" y="40" width="600" height="200" fill="url(#g6)"/>
  <defs>
    <linearGradient id="g6" x1="0" y1="0" x2="600" y2="200">
      <stop offset="0%" stop-color="#1c0a1a"/>
      <stop offset="100%" stop-color="#0a0a0f"/>
    </linearGradient>
  </defs>
  
  <rect x="40" y="70" width="120" height="8" rx="4" fill="#EC4899" opacity="0.6"/>
  <rect x="40" y="90" width="280" height="16" rx="4" fill="rgba(255,255,255,0.15)"/>
  <rect x="40" y="114" width="200" height="8" rx="4" fill="rgba(255,255,255,0.08)"/>
  <rect x="40" y="145" width="160" height="32" rx="16" fill="#EC4899"/>
  
  <!-- Menu items -->
  <rect x="24" y="260" width="552" height="50" rx="6" fill="rgba(255,255,255,0.03)"/>
  <rect x="40" y="274" width="120" height="8" rx="4" fill="rgba(255,255,255,0.12)"/>
  <rect x="40" y="290" width="80" height="6" rx="3" fill="rgba(255,255,255,0.06)"/>
  <rect x="500" y="274" width="60" height="10" rx="4" fill="#EC4899" opacity="0.5"/>
  
  <rect x="24" y="318" width="552" height="50" rx="6" fill="rgba(255,255,255,0.03)"/>
  <rect x="40" y="332" width="120" height="8" rx="4" fill="rgba(255,255,255,0.12)"/>
  <rect x="40" y="348" width="80" height="6" rx="3" fill="rgba(255,255,255,0.06)"/>
  <rect x="500" y="332" width="60" height="10" rx="4" fill="#EC4899" opacity="0.5"/>
  
  <!-- Reservation bar -->
  <rect x="24" y="376" width="552" height="36" rx="8" fill="#EC4899" opacity="0.1"/>
  <rect x="220" y="388" width="160" height="12" rx="6" fill="#EC4899" opacity="0.6"/>
  
  <text x="300" y="410" text-anchor="middle" fill="rgba(255,255,255,0.12)" font-size="9" font-family="monospace">Restaurante Premium</text>
</svg>
